<svg width="34" height="34" viewBox="0 0 35 35" fill="none" xmlns="http://www.w3.org/2000/svg"><path fill-rule="evenodd" clip-rule="evenodd" d="M13 24.375C16.0168 24.375 18.9101 23.1766 21.0433 21.0433C23.1766 18.9101 24.375 16.0168 24.375 13C24.375 9.98316 23.1766 7.08989 21.0433 4.95666C18.9101 2.82343 16.0168 1.625 13 1.625C9.98316 1.625 7.08989 2.82343 4.95666 4.95666C2.82343 7.08989 1.625 9.98316 1.625 13C1.625 16.0168 2.82343 18.9101 4.95666 21.0433C7.08989 23.1766 9.98316 24.375 13 24.375ZM13 26C16.4478 26 19.7544 24.6304 22.1924 22.1924C24.6304 19.7544 26 16.4478 26 13C26 9.55219 24.6304 6.24558 22.1924 3.80761C19.7544 1.36964 16.4478 0 13 0C9.55219 0 6.24558 1.36964 3.80761 3.80761C1.36964 6.24558 0 9.55219 0 13C0 16.4478 1.36964 19.7544 3.80761 22.1924C6.24558 24.6304 9.55219 26 13 26Z" fill="#82B481"/><path fill-rule="evenodd" clip-rule="evenodd" d="M18.387 16.2723C18.5412 16.2359 18.7027 16.2455 18.8516 16.2998C19.0005 16.3541 19.1302 16.4508 19.2249 16.5779C19.3195 16.705 19.3749 16.857 19.3842 17.0152C19.3936 17.1734 19.3565 17.3309 19.2775 17.4683C18.6358 18.5803 17.7125 19.5038 16.6005 20.1456C15.4885 20.7875 14.2271 21.1251 12.9432 21.1245C11.6593 21.1251 10.3979 20.7875 9.28588 20.1456C8.17391 19.5038 7.25063 18.5803 6.60895 17.4683C6.52994 17.3309 6.49281 17.1734 6.50216 17.0152C6.51151 16.857 6.56691 16.705 6.66155 16.5779C6.75619 16.4508 6.88594 16.3541 7.03481 16.2998C7.18369 16.2455 7.3452 16.2359 7.49945 16.2723H7.50758L7.5352 16.2804L7.64408 16.3048L8.05358 16.3941C8.40295 16.4689 8.89045 16.5696 9.4462 16.6688C10.5723 16.8703 11.9195 17.062 12.9432 17.062C13.967 17.062 15.3157 16.8703 16.4402 16.6688C17.0434 16.5602 17.6443 16.4389 18.2423 16.3048L18.3512 16.2804L18.3788 16.2739L18.387 16.2706V16.2723ZM7.72858 7.41925C8.96845 5.10525 14.2611 7.22425 9.27558 12.9995C1.96958 10.406 5.45683 6.01525 7.72858 7.41925ZM18.2716 7.41925C20.5433 6.01525 24.0306 10.406 16.7246 12.9995C11.7407 7.22425 17.0333 5.10525 18.2716 7.41925Z" fill="#82B481"/></svg>