<svg width="34" height="34" viewBox="0 0 35 35" fill="none" xmlns="http://www.w3.org/2000/svg"><path fill-rule="evenodd" clip-rule="evenodd" d="M13 24.375C16.0168 24.375 18.9101 23.1766 21.0433 21.0433C23.1766 18.9101 24.375 16.0168 24.375 13C24.375 9.98316 23.1766 7.08989 21.0433 4.95666C18.9101 2.82343 16.0168 1.625 13 1.625C9.98316 1.625 7.08989 2.82343 4.95666 4.95666C2.82343 7.08989 1.625 9.98316 1.625 13C1.625 16.0168 2.82343 18.9101 4.95666 21.0433C7.08989 23.1766 9.98316 24.375 13 24.375ZM13 26C16.4478 26 19.7544 24.6304 22.1924 22.1924C24.6304 19.7544 26 16.4478 26 13C26 9.55219 24.6304 6.24558 22.1924 3.80761C19.7544 1.36964 16.4478 0 13 0C9.55219 0 6.24558 1.36964 3.80761 3.80761C1.36964 6.24558 0 9.55219 0 13C0 16.4478 1.36964 19.7544 3.80761 22.1924C6.24558 24.6304 9.55219 26 13 26Z" fill="#D6C321"/><path fill-rule="evenodd" clip-rule="evenodd" d="M6.5 17.0625C6.5 16.847 6.5856 16.6403 6.73798 16.488C6.89035 16.3356 7.09701 16.25 7.3125 16.25H18.6875C18.903 16.25 19.1097 16.3356 19.262 16.488C19.4144 16.6403 19.5 16.847 19.5 17.0625C19.5 17.278 19.4144 17.4847 19.262 17.637C19.1097 17.7894 18.903 17.875 18.6875 17.875H7.3125C7.09701 17.875 6.89035 17.7894 6.73798 17.637C6.5856 17.4847 6.5 17.278 6.5 17.0625Z" fill="#D6C321"/><path d="M11.375 10.5625C11.375 11.908 10.647 13 9.75 13C8.853 13 8.125 11.908 8.125 10.5625C8.125 9.217 8.853 8.125 9.75 8.125C10.647 8.125 11.375 9.217 11.375 10.5625ZM17.875 10.5625C17.875 11.908 17.147 13 16.25 13C15.353 13 14.625 11.908 14.625 10.5625C14.625 9.217 15.353 8.125 16.25 8.125C17.147 8.125 17.875 9.217 17.875 10.5625Z" fill="#D6C321"/></svg>
