<svg width="34" height="34" viewBox="0 0 35 35" fill="none" xmlns="http://www.w3.org/2000/svg"><path d="M10.5625 10.5627C10.5624 11.4601 9.83492 12.1876 8.9375 12.1876C8.04005 12.1876 7.3125 11.4601 7.3125 10.5626C7.3125 9.98855 7.61017 9.48401 8.05958 9.19493L6.08233 8.00948C5.69746 7.77873 5.57253 7.27968 5.80327 6.89483C6.03402 6.50996 6.53307 6.38503 6.91792 6.61577L10.9835 9.05327C11.3683 9.28402 11.4933 9.78305 11.2625 10.1679C11.1098 10.4227 10.8394 10.5636 10.5625 10.5627Z" fill="#FA8279"/><path d="M18.6876 10.5628C18.6876 11.4603 17.9601 12.1878 17.0626 12.1878C16.1651 12.1878 15.4376 11.4603 15.4376 10.5628C15.163 10.5616 14.8957 10.421 14.7439 10.1684C14.513 9.78368 14.6376 9.28454 15.0223 9.05355L19.0817 6.61605C19.4665 6.38505 19.9655 6.50966 20.1966 6.89436C20.4275 7.27908 20.3029 7.7782 19.9182 8.00919L17.9417 9.19594C18.3906 9.48515 18.6876 9.98929 18.6876 10.5628V10.5628Z" fill="#FA8279"/><path d="M18.789 18.5094C18.4401 18.7886 17.9319 18.7335 17.6508 18.3874L17.6461 18.382C17.6398 18.3747 17.6274 18.3605 17.6089 18.3406C17.5718 18.3007 17.5102 18.2375 17.4236 18.1587C17.2502 18.0011 16.9776 17.7819 16.5999 17.5596C15.8495 17.1181 14.6709 16.6562 13.0031 16.6562C11.3353 16.6562 10.155 17.1181 9.40267 17.5599C9.0242 17.7822 8.75059 18.0018 8.57653 18.1595C8.48956 18.2384 8.42776 18.3016 8.3905 18.3415C8.37186 18.3615 8.35942 18.3757 8.35306 18.3831L8.34838 18.3887C8.06658 18.7341 7.55823 18.7883 7.20997 18.5084C6.86013 18.2275 6.80431 17.7161 7.08532 17.3662L7.71878 17.875C7.08532 17.3662 7.08503 17.3665 7.08532 17.3662L7.08649 17.3647L7.08781 17.3631L7.09093 17.3592L7.09905 17.3495L7.12292 17.3214C7.14224 17.2989 7.16842 17.2694 7.20154 17.2339C7.26776 17.1628 7.36196 17.0672 7.48504 16.9557C7.73103 16.7326 8.0936 16.4444 8.57962 16.1588C9.55629 15.5851 11.0181 15.0312 13.0031 15.0312C14.9882 15.0312 16.4486 15.5852 17.4241 16.1592C17.9095 16.4448 18.2714 16.7333 18.5168 16.9566C18.6396 17.0682 18.7337 17.1637 18.7997 17.2349C18.8327 17.2705 18.8588 17.2999 18.8782 17.3223L18.9019 17.3506L18.91 17.3605L18.9133 17.3643L18.9146 17.3659C18.9147 17.3664 18.9157 17.3673 18.2813 17.875L18.9157 17.3674C19.196 17.7177 19.1393 18.2291 18.789 18.5094V18.5094Z" fill="#FA8279"/><path d="M13 0C5.82029 0 0 5.82029 0 13C0 20.1797 5.82029 26 13 26C20.1797 26 26 20.1797 26 13C26 5.82029 20.1797 0 13 0ZM1.625 13C1.625 6.71777 6.71777 1.625 13 1.625C19.2822 1.625 24.375 6.71777 24.375 13C24.375 19.2822 19.2822 24.375 13 24.375C6.71777 24.375 1.625 19.2822 1.625 13Z" fill="#FA8279"/></svg>
