<svg width="34" height="34" viewBox="0 0 35 35" fill="none" xmlns="http://www.w3.org/2000/svg"><path d="M7.30331 9.87253C7.37662 9.39195 7.8532 8.9375 8.52798 8.9375C9.20276 8.9375 9.67934 9.39195 9.75264 9.87253C9.82031 10.3161 10.2348 10.6209 10.6784 10.5532C11.122 10.4855 11.4267 10.0711 11.3591 9.62748C11.1522 8.27119 9.91969 7.3125 8.52798 7.3125C7.13626 7.3125 5.90378 8.27119 5.6969 9.62748C5.62924 10.0711 5.93399 10.4855 6.37758 10.5532C6.82119 10.6209 7.23565 10.3161 7.30331 9.87253Z" fill="#BBE3AD"/><path d="M17.4655 8.9375C16.7906 8.9375 16.3142 9.39195 16.2409 9.87253C16.1731 10.3161 15.7588 10.6209 15.3151 10.5532C14.8715 10.4855 14.5667 10.0711 14.6344 9.62748C14.8413 8.27119 16.0739 7.3125 17.4655 7.3125C18.8572 7.3125 20.0897 8.27119 20.2966 9.62748C20.3642 10.0711 20.0595 10.4855 19.6159 10.5532C19.1722 10.6209 18.7579 10.3161 18.6901 9.87253C18.6168 9.39195 18.1402 8.9375 17.4655 8.9375Z" fill="#BBE3AD"/><path d="M5.67969 13C5.45046 13 5.2319 13.0968 5.07788 13.2667C4.92388 13.4365 4.84876 13.6633 4.87104 13.8915C5.25883 17.8617 8.37538 21.125 12.9922 21.125C17.6089 21.125 20.7255 17.8617 21.1133 13.8915C21.1356 13.6633 21.0605 13.4365 20.9065 13.2667C20.7524 13.0968 20.5339 13 20.3048 13H5.67969ZM12.9922 19.5C9.60944 19.5 7.27849 17.3829 6.63486 14.625H19.3496C18.7058 17.3829 16.3749 19.5 12.9922 19.5Z" fill="#BBE3AD"/><path d="M13 0C5.82029 0 0 5.82029 0 13C0 20.1797 5.82029 26 13 26C20.1797 26 26 20.1797 26 13C26 5.82029 20.1797 0 13 0ZM1.625 13C1.625 6.71777 6.71777 1.625 13 1.625C19.2822 1.625 24.375 6.71777 24.375 13C24.375 19.2822 19.2822 24.375 13 24.375C6.71777 24.375 1.625 19.2822 1.625 13Z" fill="#BBE3AD"/></svg>
