<svg width="34" height="34" viewBox="0 0 35 35" fill="none" xmlns="http://www.w3.org/2000/svg"><path d="M8.9375 12.1875C9.83495 12.1875 10.5625 11.46 10.5625 10.5625C10.5625 9.66504 9.83495 8.9375 8.9375 8.9375C8.04004 8.9375 7.3125 9.66504 7.3125 10.5625C7.3125 11.46 8.04004 12.1875 8.9375 12.1875Z" fill="#F5D248"/><path d="M18.6875 10.5625C18.6875 11.46 17.96 12.1875 17.0625 12.1875C16.165 12.1875 15.4375 11.46 15.4375 10.5625C15.4375 9.66504 16.165 8.9375 17.0625 8.9375C17.96 8.9375 18.6875 9.66504 18.6875 10.5625Z" fill="#F5D248"/><path d="M18.789 18.5094C18.4401 18.7884 17.9319 18.7335 17.6508 18.3874L17.6461 18.382C17.6398 18.3747 17.6274 18.3605 17.6089 18.3406C17.5718 18.3006 17.5102 18.2375 17.4236 18.1587C17.2502 18.0011 16.9776 17.7817 16.5999 17.5596C15.8495 17.1179 14.6709 16.6562 13.0031 16.6562C11.3353 16.6562 10.155 17.1181 9.40267 17.5599C9.0242 17.7822 8.75059 18.0018 8.57653 18.1595C8.48956 18.2384 8.42776 18.3016 8.3905 18.3415C8.37186 18.3615 8.35942 18.3757 8.35306 18.383L8.34838 18.3885C8.06658 18.7341 7.55823 18.7881 7.20997 18.5084C6.86013 18.2275 6.80431 17.7161 7.08532 17.3662L7.71878 17.875C7.08532 17.3662 7.08503 17.3665 7.08532 17.3662L7.08649 17.3647L7.08781 17.3631L7.09093 17.3592L7.09905 17.3495L7.12292 17.3212C7.14224 17.2989 7.16842 17.2694 7.20154 17.2338C7.26776 17.1628 7.36196 17.0672 7.48504 16.9557C7.73103 16.7326 8.0936 16.4442 8.57962 16.1588C9.55629 15.5851 11.0181 15.0312 13.0031 15.0312C14.9882 15.0312 16.4486 15.5851 17.4241 16.1592C17.9095 16.4447 18.2714 16.7333 18.5168 16.9564C18.6396 17.068 18.7337 17.1637 18.7997 17.2347C18.8327 17.2703 18.8588 17.2999 18.8782 17.3223L18.9019 17.3506L18.91 17.3604L18.9133 17.3643L18.9146 17.3659C18.9147 17.3662 18.9157 17.3673 18.2813 17.875L18.9157 17.3674C19.196 17.7177 19.1393 18.2291 18.789 18.5094Z" fill="#F5D248"/><path d="M13 0C5.82029 0 0 5.82029 0 13C0 20.1797 5.82029 26 13 26C20.1797 26 26 20.1797 26 13C26 5.82029 20.1797 0 13 0ZM1.625 13C1.625 6.71777 6.71777 1.625 13 1.625C19.2822 1.625 24.375 6.71777 24.375 13C24.375 19.2822 19.2822 24.375 13 24.375C6.71777 24.375 1.625 19.2822 1.625 13Z" fill="#F5D248"/></svg>
